<svg xmlns="http://www.w3.org/2000/svg" xmlns:xlink="http://www.w3.org/1999/xlink" width="400" zoomAndPan="magnify" viewBox="0 0 300 149.999998" height="200" preserveAspectRatio="xMidYMid meet" version="1.0"><defs><g/><clipPath id="aff3aeb2b9"><path d="M 64.46875 21.25 L 300 21.25 L 300 100.226562 L 64.46875 100.226562 Z M 64.46875 21.25 " clip-rule="nonzero"/></clipPath></defs><g fill="#000000" fill-opacity="1"><g transform="translate(0.0000025, 96.274207)"><g><path d="M 8.535156 -37.667969 C 9.941406 -37.667969 11.199219 -38.210938 12.171875 -39.183594 C 13.179688 -40.191406 13.683594 -41.378906 13.683594 -42.785156 C 13.683594 -44.1875 13.179688 -45.414062 12.171875 -46.421875 C 11.199219 -47.394531 9.941406 -47.898438 8.535156 -47.898438 C 7.128906 -47.898438 5.90625 -47.394531 4.933594 -46.421875 C 3.890625 -45.375 3.386719 -44.1875 3.386719 -42.785156 C 3.386719 -41.453125 3.960938 -40.15625 4.933594 -39.183594 C 5.941406 -38.175781 7.128906 -37.667969 8.535156 -37.667969 Z M 8.535156 0.394531 C 9.832031 0.394531 11.019531 -0.144531 11.882812 -1.007812 C 12.75 -1.871094 13.289062 -3.097656 13.289062 -4.359375 L 13.289062 -30 C 13.289062 -31.296875 12.820312 -32.484375 11.957031 -33.347656 C 11.09375 -34.210938 9.867188 -34.753906 8.605469 -34.753906 C 7.3125 -34.753906 6.015625 -34.210938 5.148438 -33.347656 C 4.25 -32.484375 3.671875 -31.257812 3.671875 -30 L 3.671875 -4.359375 C 3.671875 -3.097656 4.25 -1.871094 5.148438 -1.007812 C 6.015625 -0.144531 7.238281 0.394531 8.535156 0.394531 Z M 8.535156 0.394531 "/></g></g></g><g fill="#000000" fill-opacity="1"><g transform="translate(17.069547, 96.274207)"><g><path d="M 7.023438 0 C 8.320312 0 9.433594 -0.46875 10.335938 -1.367188 C 11.234375 -2.234375 11.703125 -3.347656 11.703125 -4.683594 L 11.703125 -17.828125 C 11.742188 -19.84375 12.605469 -21.714844 13.9375 -23.046875 C 15.234375 -24.34375 17.140625 -25.136719 19.160156 -25.136719 C 21.175781 -25.136719 23.191406 -24.34375 24.667969 -22.941406 C 26.21875 -21.535156 27.117188 -19.628906 27.152344 -17.609375 L 27.152344 -4.683594 C 27.152344 -3.347656 27.621094 -2.269531 28.59375 -1.367188 C 29.457031 -0.503906 30.683594 0 32.015625 0 C 33.3125 0 34.5 -0.503906 35.363281 -1.367188 C 36.265625 -2.269531 36.699219 -3.347656 36.699219 -4.683594 L 36.699219 -17.644531 C 36.699219 -22.257812 34.753906 -26.578125 31.476562 -29.746094 C 28.199219 -32.917969 23.804688 -34.753906 19.160156 -34.753906 C 14.550781 -34.753906 10.300781 -32.917969 7.128906 -29.746094 C 3.960938 -26.578125 2.089844 -22.257812 2.089844 -17.644531 L 2.089844 -4.683594 C 2.089844 -3.386719 2.59375 -2.269531 3.566406 -1.367188 C 4.464844 -0.503906 5.726562 0 7.023438 0 Z M 7.023438 0 "/></g></g></g><g fill="#000000" fill-opacity="1"><g transform="translate(6.552567, 122.13336)"><g><path d="M 1.140625 -1 C 1.140625 -0.332031 1.613281 0.015625 2.085938 0 C 2.558594 -0.015625 3.035156 -0.351562 3.035156 -1 L 3.035156 -10.347656 C 3.035156 -10.890625 2.578125 -11.3125 2.050781 -11.3125 C 1.542969 -11.3125 1.140625 -10.890625 1.140625 -10.347656 Z M 1.140625 -1 "/></g></g></g><g fill="#000000" fill-opacity="1"><g transform="translate(15.987189, 122.13336)"><g><path d="M 2.085938 -9.03125 C 2.664062 -9.03125 3.140625 -9.503906 3.140625 -10.085938 C 3.140625 -10.664062 2.664062 -11.117188 2.085938 -11.117188 C 1.527344 -11.117188 1.050781 -10.664062 1.050781 -10.085938 C 1.050781 -9.503906 1.527344 -9.03125 2.085938 -9.03125 Z M 2.070312 0 C 2.59375 0 3.015625 -0.421875 3.015625 -0.964844 L 3.015625 -7.226562 C 3.015625 -7.75 2.613281 -8.171875 2.085938 -8.171875 C 1.542969 -8.171875 1.105469 -7.75 1.105469 -7.226562 L 1.105469 -0.964844 C 1.105469 -0.421875 1.542969 0 2.070312 0 Z M 2.070312 0 "/></g></g></g><g fill="#000000" fill-opacity="1"><g transform="translate(25.369215, 122.13336)"><g><path d="M 1.140625 -1 C 1.140625 -0.332031 1.613281 0.015625 2.085938 0 C 2.558594 -0.015625 3.035156 -0.351562 3.035156 -1 L 3.035156 -10.347656 C 3.035156 -10.890625 2.578125 -11.3125 2.050781 -11.3125 C 1.542969 -11.3125 1.140625 -10.890625 1.140625 -10.347656 Z M 1.140625 -1 "/></g></g></g><g fill="#000000" fill-opacity="1"><g transform="translate(34.803836, 122.13336)"><g><path d="M 3.488281 -11.082031 C 3.628906 -11.242188 3.71875 -11.453125 3.71875 -11.75 C 3.71875 -12.082031 3.386719 -12.398438 3.050781 -12.398438 C 2.824219 -12.398438 2.558594 -12.382812 2.28125 -12.082031 L 0.980469 -10.75 C 0.824219 -10.59375 0.632812 -10.363281 0.632812 -9.980469 C 0.632812 -9.628906 0.929688 -9.332031 1.296875 -9.332031 C 1.5625 -9.332031 1.824219 -9.417969 2.035156 -9.609375 Z M 3.488281 -11.082031 "/></g></g></g><g fill="#000000" fill-opacity="1"><g transform="translate(44.413789, 122.13336)"><g><path d="M 3.894531 -8.171875 L 3.894531 -9.628906 C 3.894531 -10.15625 3.417969 -10.574219 2.910156 -10.574219 C 2.402344 -10.574219 2 -10.15625 2 -9.628906 L 2 -8.171875 L 1.15625 -8.171875 C 0.457031 -8.171875 0.175781 -7.699219 0.175781 -7.296875 C 0.175781 -6.789062 0.457031 -6.367188 1.15625 -6.367188 L 2 -6.367188 L 2 -1 C 2 -0.332031 2.472656 0 2.945312 0 C 3.417969 0 3.894531 -0.351562 3.894531 -1 L 3.894531 -6.367188 L 4.753906 -6.367188 C 5.347656 -6.367188 5.699219 -6.769531 5.699219 -7.332031 C 5.699219 -7.769531 5.347656 -8.171875 4.753906 -8.171875 Z M 3.894531 -8.171875 "/></g></g></g><g fill="#000000" fill-opacity="1"><g transform="translate(55.549079, 122.13336)"><g><path d="M 2.085938 -9.03125 C 2.664062 -9.03125 3.140625 -9.503906 3.140625 -10.085938 C 3.140625 -10.664062 2.664062 -11.117188 2.085938 -11.117188 C 1.527344 -11.117188 1.050781 -10.664062 1.050781 -10.085938 C 1.050781 -9.503906 1.527344 -9.03125 2.085938 -9.03125 Z M 2.070312 0 C 2.59375 0 3.015625 -0.421875 3.015625 -0.964844 L 3.015625 -7.226562 C 3.015625 -7.75 2.613281 -8.171875 2.085938 -8.171875 C 1.542969 -8.171875 1.105469 -7.75 1.105469 -7.226562 L 1.105469 -0.964844 C 1.105469 -0.421875 1.542969 0 2.070312 0 Z M 2.070312 0 "/></g></g></g><g fill="#000000" fill-opacity="1"><g transform="translate(64.931106, 122.13336)"><g><path d="M 9.226562 -8.261719 C 8.261719 -8.261719 7.347656 -7.769531 6.855469 -6.855469 C 6.382812 -7.769531 5.613281 -8.261719 4.628906 -8.261719 C 3.910156 -8.261719 3.140625 -7.910156 2.578125 -7.296875 C 2.558594 -7.960938 2.175781 -8.191406 1.839844 -8.191406 C 1.457031 -8.191406 1.105469 -7.820312 1.105469 -7.347656 L 1.105469 -0.945312 C 1.105469 -0.421875 1.5625 0 2.070312 0 C 2.59375 0 3.015625 -0.421875 3.015625 -0.945312 L 3.015625 -4.980469 C 3.015625 -5.753906 3.613281 -6.367188 4.382812 -6.367188 C 5.136719 -6.367188 5.753906 -5.804688 5.753906 -5.015625 L 5.753906 -0.945312 C 5.753906 -0.421875 6.207031 0 6.71875 0 C 7.242188 0 7.664062 -0.421875 7.664062 -0.945312 L 7.664062 -4.980469 C 7.664062 -5.753906 8.261719 -6.367188 9.03125 -6.367188 C 9.785156 -6.367188 10.417969 -5.804688 10.417969 -5.015625 L 10.417969 -0.945312 C 10.417969 -0.421875 10.875 0 11.382812 0 C 11.910156 0 12.3125 -0.421875 12.3125 -0.945312 L 12.3125 -5.085938 C 12.3125 -6.855469 11.015625 -8.261719 9.226562 -8.261719 Z M 9.226562 -8.261719 "/></g></g></g><g fill="#000000" fill-opacity="1"><g transform="translate(83.517784, 122.13336)"><g><path d="M 8.609375 -4.453125 C 8.609375 -6.453125 7.066406 -8.261719 4.753906 -8.261719 C 2.316406 -8.261719 0.632812 -6.402344 0.632812 -4.085938 C 0.632812 -1.769531 2.316406 0.121094 4.71875 0.121094 C 6.085938 0.121094 6.996094 -0.332031 7.558594 -0.875 C 7.960938 -1.246094 7.980469 -1.71875 7.769531 -2.035156 C 7.453125 -2.492188 6.925781 -2.402344 6.523438 -2.140625 C 6.015625 -1.753906 5.507812 -1.578125 4.839844 -1.578125 C 3.769531 -1.578125 2.859375 -2.28125 2.578125 -3.351562 L 7.785156 -3.351562 C 8.347656 -3.351562 8.609375 -3.734375 8.609375 -4.453125 Z M 2.558594 -4.789062 C 2.824219 -5.859375 3.734375 -6.578125 4.824219 -6.578125 C 5.910156 -6.578125 6.875 -5.824219 6.925781 -4.789062 Z M 2.558594 -4.789062 "/></g></g></g><g fill="#000000" fill-opacity="1"><g transform="translate(98.01935, 122.13336)"><g><path d="M 1.035156 2.402344 C 1.5625 2.59375 2.085938 2.296875 2.261719 1.789062 L 3.050781 -0.4375 C 3.246094 -0.964844 3.035156 -1.507812 2.507812 -1.703125 C 2 -1.875 1.457031 -1.613281 1.261719 -1.085938 L 0.492188 1.140625 C 0.28125 1.648438 0.542969 2.191406 1.035156 2.402344 Z M 1.035156 2.402344 "/></g></g></g><g fill="#000000" fill-opacity="1"><g transform="translate(106.892924, 122.13336)"><g/></g></g><g fill="#000000" fill-opacity="1"><g transform="translate(116.520409, 122.13336)"><g><path d="M 5.3125 -8.261719 C 4.402344 -8.261719 3.628906 -7.910156 3.035156 -7.332031 L 3.035156 -10.328125 C 3.035156 -10.875 2.648438 -11.3125 2.085938 -11.3125 C 1.5625 -11.3125 1.140625 -10.875 1.140625 -10.328125 L 1.140625 -0.859375 C 1.140625 -0.367188 1.492188 0.015625 1.875 0.015625 C 2.210938 0.015625 2.613281 -0.246094 2.613281 -0.964844 L 2.613281 -1.332031 C 3.261719 -0.421875 4.246094 0.105469 5.507812 0.105469 C 7.628906 0.105469 9.488281 -1.789062 9.488281 -4.085938 C 9.488281 -6.402344 7.628906 -8.261719 5.3125 -8.261719 Z M 5.3125 -1.703125 C 4 -1.703125 2.929688 -2.769531 2.929688 -4.085938 C 2.929688 -5.402344 4 -6.472656 5.3125 -6.472656 C 6.648438 -6.472656 7.679688 -5.402344 7.679688 -4.085938 C 7.679688 -2.769531 6.648438 -1.703125 5.3125 -1.703125 Z M 5.3125 -1.703125 "/></g></g></g><g fill="#000000" fill-opacity="1"><g transform="translate(131.898608, 122.13336)"><g><path d="M 2.085938 -9.03125 C 2.664062 -9.03125 3.140625 -9.503906 3.140625 -10.085938 C 3.140625 -10.664062 2.664062 -11.117188 2.085938 -11.117188 C 1.527344 -11.117188 1.050781 -10.664062 1.050781 -10.085938 C 1.050781 -9.503906 1.527344 -9.03125 2.085938 -9.03125 Z M 2.070312 0 C 2.59375 0 3.015625 -0.421875 3.015625 -0.964844 L 3.015625 -7.226562 C 3.015625 -7.75 2.613281 -8.171875 2.085938 -8.171875 C 1.542969 -8.171875 1.105469 -7.75 1.105469 -7.226562 L 1.105469 -0.964844 C 1.105469 -0.421875 1.542969 0 2.070312 0 Z M 2.070312 0 "/></g></g></g><g fill="#000000" fill-opacity="1"><g transform="translate(141.280634, 122.13336)"><g><path d="M 8.171875 -8.171875 C 7.839844 -8.171875 7.4375 -7.925781 7.4375 -7.207031 L 7.4375 -6.753906 C 6.804688 -7.734375 5.875 -8.261719 4.542969 -8.261719 C 2.492188 -8.261719 0.632812 -6.523438 0.632812 -4.15625 C 0.632812 -1.789062 2.492188 -0.0351562 4.523438 -0.0351562 C 5.875 -0.0351562 6.804688 -0.578125 7.4375 -1.542969 L 7.4375 -0.648438 C 7.4375 0.632812 6.804688 1.578125 5.613281 1.578125 L 3.015625 1.578125 C 1.875 1.597656 1.910156 3.316406 3.015625 3.316406 L 5.910156 3.316406 C 7.367188 3.316406 8.925781 2.246094 8.925781 -0.527344 L 8.925781 -7.296875 C 8.925781 -7.785156 8.558594 -8.171875 8.171875 -8.171875 Z M 4.753906 -1.789062 C 3.453125 -1.789062 2.386719 -2.859375 2.386719 -4.15625 C 2.386719 -5.453125 3.4375 -6.523438 4.753906 -6.523438 C 6.050781 -6.523438 7.101562 -5.488281 7.101562 -4.15625 C 7.101562 -2.804688 6.050781 -1.789062 4.753906 -1.789062 Z M 4.753906 -1.789062 "/></g></g></g><g fill="#000000" fill-opacity="1"><g transform="translate(156.553631, 122.13336)"><g/></g></g><g fill="#000000" fill-opacity="1"><g transform="translate(166.181115, 122.13336)"><g><path d="M 2.105469 0 C 2.613281 0 3.035156 -0.421875 3.035156 -0.945312 L 3.035156 -2.472656 L 3.824219 -3.191406 L 6.472656 -0.28125 C 6.820312 0.105469 7.4375 0.105469 7.785156 -0.246094 C 8.171875 -0.613281 8.15625 -1.226562 7.820312 -1.597656 L 5.121094 -4.453125 L 7.3125 -6.523438 C 7.679688 -6.890625 7.699219 -7.472656 7.332031 -7.839844 L 7.332031 -7.855469 C 6.960938 -8.226562 6.402344 -8.261719 6.03125 -7.890625 L 3.035156 -4.964844 L 3.035156 -10.363281 C 3.035156 -10.890625 2.628906 -11.3125 2.105469 -11.3125 C 1.578125 -11.3125 1.140625 -10.890625 1.140625 -10.363281 L 1.140625 -0.945312 C 1.140625 -0.421875 1.578125 0 2.105469 0 Z M 2.105469 0 "/></g></g></g><g fill="#000000" fill-opacity="1"><g transform="translate(179.91125, 122.13336)"><g><path d="M 5.207031 -8.261719 C 4.210938 -8.261719 3.226562 -7.839844 2.578125 -7.015625 L 2.578125 -7.242188 C 2.578125 -7.945312 2.191406 -8.191406 1.839844 -8.191406 C 1.457031 -8.191406 1.105469 -7.820312 1.105469 -7.332031 L 1.105469 -0.910156 C 1.105469 -0.386719 1.5625 0.015625 2.070312 0.015625 C 2.59375 0.015625 3.015625 -0.386719 3.015625 -0.910156 L 3.015625 -4.347656 C 3.015625 -5.542969 3.875 -6.472656 5.070312 -6.472656 C 6.332031 -6.472656 7.085938 -5.488281 7.085938 -4.332031 L 7.085938 -0.910156 C 7.085938 -0.386719 7.523438 0.015625 8.050781 0.015625 C 8.574219 0.015625 8.980469 -0.386719 8.980469 -0.910156 L 8.980469 -4.226562 C 8.980469 -6.472656 7.453125 -8.261719 5.207031 -8.261719 Z M 5.207031 -8.261719 "/></g></g></g><g fill="#000000" fill-opacity="1"><g transform="translate(195.166731, 122.13336)"><g><path d="M 4.824219 0.105469 C 7.121094 0.105469 8.996094 -1.789062 8.996094 -4.085938 C 8.996094 -6.382812 7.121094 -8.261719 4.824219 -8.261719 C 2.527344 -8.261719 0.632812 -6.382812 0.632812 -4.085938 C 0.632812 -1.789062 2.527344 0.105469 4.824219 0.105469 Z M 4.824219 -1.703125 C 3.507812 -1.703125 2.4375 -2.769531 2.4375 -4.085938 C 2.4375 -5.402344 3.507812 -6.472656 4.824219 -6.472656 C 6.136719 -6.472656 7.191406 -5.402344 7.191406 -4.085938 C 7.191406 -2.769531 6.136719 -1.703125 4.824219 -1.703125 Z M 4.824219 -1.703125 "/></g></g></g><g fill="#000000" fill-opacity="1"><g transform="translate(210.054015, 122.13336)"><g><path d="M 3.683594 0 C 4.15625 0 4.453125 -0.246094 4.699219 -0.789062 L 5.894531 -3.699219 L 7.085938 -0.84375 C 7.347656 -0.261719 7.664062 0 8.121094 0 C 8.664062 0 8.855469 -0.261719 9.050781 -0.738281 L 11.503906 -6.839844 C 11.734375 -7.417969 11.453125 -8.15625 10.714844 -8.171875 C 10.242188 -8.171875 9.925781 -7.945312 9.785156 -7.542969 L 7.839844 -2.421875 L 6.628906 -5.367188 L 7.191406 -6.980469 C 7.347656 -7.558594 7.136719 -8.171875 6.417969 -8.171875 C 5.929688 -8.191406 5.683594 -7.890625 5.578125 -7.472656 L 3.875 -2.4375 L 1.964844 -7.523438 C 1.859375 -7.820312 1.597656 -8.191406 1.070312 -8.171875 C 0.351562 -8.171875 0 -7.332031 0.246094 -6.789062 L 2.683594 -0.753906 C 2.910156 -0.175781 3.296875 0 3.683594 0 Z M 3.683594 0 "/></g></g></g><g fill="#000000" fill-opacity="1"><g transform="translate(227.080289, 122.13336)"><g><path d="M 1.140625 -1 C 1.140625 -0.332031 1.613281 0.015625 2.085938 0 C 2.558594 -0.015625 3.035156 -0.351562 3.035156 -1 L 3.035156 -10.347656 C 3.035156 -10.890625 2.578125 -11.3125 2.050781 -11.3125 C 1.542969 -11.3125 1.140625 -10.890625 1.140625 -10.347656 Z M 1.140625 -1 "/></g></g></g><g fill="#000000" fill-opacity="1"><g transform="translate(236.514917, 122.13336)"><g><path d="M 8.609375 -4.453125 C 8.609375 -6.453125 7.066406 -8.261719 4.753906 -8.261719 C 2.316406 -8.261719 0.632812 -6.402344 0.632812 -4.085938 C 0.632812 -1.769531 2.316406 0.121094 4.71875 0.121094 C 6.085938 0.121094 6.996094 -0.332031 7.558594 -0.875 C 7.960938 -1.246094 7.980469 -1.71875 7.769531 -2.035156 C 7.453125 -2.492188 6.925781 -2.402344 6.523438 -2.140625 C 6.015625 -1.753906 5.507812 -1.578125 4.839844 -1.578125 C 3.769531 -1.578125 2.859375 -2.28125 2.578125 -3.351562 L 7.785156 -3.351562 C 8.347656 -3.351562 8.609375 -3.734375 8.609375 -4.453125 Z M 2.558594 -4.789062 C 2.824219 -5.859375 3.734375 -6.578125 4.824219 -6.578125 C 5.910156 -6.578125 6.875 -5.824219 6.925781 -4.789062 Z M 2.558594 -4.789062 "/></g></g></g><g fill="#000000" fill-opacity="1"><g transform="translate(251.016488, 122.13336)"><g><path d="M 8.03125 -11.3125 C 7.472656 -11.3125 7.085938 -10.875 7.085938 -10.328125 L 7.085938 -7.332031 C 6.488281 -7.910156 5.699219 -8.261719 4.804688 -8.261719 C 2.492188 -8.261719 0.632812 -6.402344 0.632812 -4.085938 C 0.632812 -1.789062 2.492188 0.105469 4.613281 0.105469 C 5.875 0.105469 6.855469 -0.402344 7.507812 -1.332031 L 7.507812 -0.964844 C 7.507812 -0.246094 7.910156 0.015625 8.242188 0.015625 C 8.628906 0.015625 8.980469 -0.367188 8.980469 -0.859375 L 8.980469 -10.328125 C 8.980469 -10.875 8.558594 -11.3125 8.03125 -11.3125 Z M 4.804688 -1.703125 C 3.488281 -1.703125 2.4375 -2.769531 2.4375 -4.085938 C 2.4375 -5.402344 3.488281 -6.472656 4.804688 -6.472656 C 6.121094 -6.472656 7.191406 -5.402344 7.191406 -4.085938 C 7.191406 -2.769531 6.121094 -1.703125 4.804688 -1.703125 Z M 4.804688 -1.703125 "/></g></g></g><g fill="#000000" fill-opacity="1"><g transform="translate(266.394687, 122.13336)"><g><path d="M 8.171875 -8.171875 C 7.839844 -8.171875 7.4375 -7.925781 7.4375 -7.207031 L 7.4375 -6.753906 C 6.804688 -7.734375 5.875 -8.261719 4.542969 -8.261719 C 2.492188 -8.261719 0.632812 -6.523438 0.632812 -4.15625 C 0.632812 -1.789062 2.492188 -0.0351562 4.523438 -0.0351562 C 5.875 -0.0351562 6.804688 -0.578125 7.4375 -1.542969 L 7.4375 -0.648438 C 7.4375 0.632812 6.804688 1.578125 5.613281 1.578125 L 3.015625 1.578125 C 1.875 1.597656 1.910156 3.316406 3.015625 3.316406 L 5.910156 3.316406 C 7.367188 3.316406 8.925781 2.246094 8.925781 -0.527344 L 8.925781 -7.296875 C 8.925781 -7.785156 8.558594 -8.171875 8.171875 -8.171875 Z M 4.753906 -1.789062 C 3.453125 -1.789062 2.386719 -2.859375 2.386719 -4.15625 C 2.386719 -5.453125 3.4375 -6.523438 4.753906 -6.523438 C 6.050781 -6.523438 7.101562 -5.488281 7.101562 -4.15625 C 7.101562 -2.804688 6.050781 -1.789062 4.753906 -1.789062 Z M 4.753906 -1.789062 "/></g></g></g><g fill="#000000" fill-opacity="1"><g transform="translate(281.667683, 122.13336)"><g><path d="M 8.609375 -4.453125 C 8.609375 -6.453125 7.066406 -8.261719 4.753906 -8.261719 C 2.316406 -8.261719 0.632812 -6.402344 0.632812 -4.085938 C 0.632812 -1.769531 2.316406 0.121094 4.71875 0.121094 C 6.085938 0.121094 6.996094 -0.332031 7.558594 -0.875 C 7.960938 -1.246094 7.980469 -1.71875 7.769531 -2.035156 C 7.453125 -2.492188 6.925781 -2.402344 6.523438 -2.140625 C 6.015625 -1.753906 5.507812 -1.578125 4.839844 -1.578125 C 3.769531 -1.578125 2.859375 -2.28125 2.578125 -3.351562 L 7.785156 -3.351562 C 8.347656 -3.351562 8.609375 -3.734375 8.609375 -4.453125 Z M 2.558594 -4.789062 C 2.824219 -5.859375 3.734375 -6.578125 4.824219 -6.578125 C 5.910156 -6.578125 6.875 -5.824219 6.925781 -4.789062 Z M 2.558594 -4.789062 "/></g></g></g><g fill="#000000" fill-opacity="1"><g transform="translate(66.192921, 97.11036)"><g><path d="M 18.660156 0.664062 C 28.691406 0.664062 35.773438 -5.828125 35.773438 -13.941406 C 35.773438 -22.203125 29.0625 -25.59375 20.0625 -28.765625 C 16.667969 -29.945312 13.425781 -31.347656 13.425781 -34.8125 C 13.425781 -37.691406 15.785156 -38.871094 18.21875 -38.871094 C 21.539062 -38.871094 24.265625 -37.910156 26.332031 -36.066406 C 28.617188 -34.222656 31.273438 -34.742188 32.527344 -35.996094 C 33.632812 -37.101562 34.445312 -39.238281 33.414062 -41.007812 C 30.609375 -45.582031 24.636719 -47.941406 18.808594 -47.941406 C 10.472656 -47.941406 3.984375 -43.074219 3.984375 -34.59375 C 3.984375 -26.257812 10.179688 -23.160156 18.21875 -20.210938 C 23.382812 -18.21875 26.183594 -16.816406 26.183594 -13.941406 C 26.183594 -10.03125 23.457031 -8.410156 19.621094 -8.410156 C 15.339844 -8.410156 12.464844 -9.957031 10.84375 -12.097656 C 9.515625 -13.644531 8.039062 -14.015625 6.859375 -14.015625 C 3.320312 -14.015625 1.105469 -10.03125 3.320312 -7.007812 C 5.679688 -3.394531 10.84375 0.664062 18.660156 0.664062 Z M 18.660156 0.664062 "/></g></g></g><g fill="#000000" fill-opacity="1"><g transform="translate(105.358101, 97.11036)"><g><path d="M 40.273438 -47.351562 C 37.617188 -47.351562 35.402344 -45.289062 35.402344 -42.632812 L 35.402344 -28.027344 L 14.75 -28.027344 L 14.75 -42.632812 C 14.75 -45.289062 12.539062 -47.351562 9.882812 -47.351562 C 7.226562 -47.351562 5.089844 -45.289062 5.089844 -42.632812 L 5.089844 -4.71875 C 5.089844 -2.140625 7.226562 0 9.882812 0 C 12.539062 0 14.75 -2.140625 14.75 -4.71875 L 14.75 -19.175781 L 35.402344 -19.175781 L 35.402344 -4.71875 C 35.402344 -2.140625 37.46875 0 40.125 0 C 42.78125 0 44.917969 -2.140625 44.917969 -4.71875 L 44.917969 -42.632812 C 44.917969 -45.289062 42.925781 -47.351562 40.273438 -47.351562 Z M 40.273438 -47.351562 "/></g></g></g><g fill="#000000" fill-opacity="1"><g transform="translate(155.439374, 97.11036)"><g><path d="M 27.511719 0.664062 C 40.714844 0.664062 52.148438 -10.105469 52.148438 -23.527344 C 52.148438 -36.953125 40.714844 -47.941406 27.511719 -47.941406 C 14.160156 -47.941406 3.097656 -36.953125 3.097656 -23.527344 C 3.097656 -10.105469 14.160156 0.664062 27.511719 0.664062 Z M 27.511719 -8.410156 C 19.03125 -8.410156 12.6875 -14.824219 12.6875 -23.527344 C 12.6875 -32.378906 19.03125 -38.871094 27.511719 -38.871094 C 36.066406 -38.871094 42.484375 -32.378906 42.484375 -23.527344 C 42.484375 -14.824219 36.066406 -8.410156 27.511719 -8.410156 Z M 27.511719 -8.410156 "/></g></g></g><g fill="#000000" fill-opacity="1"><g transform="translate(210.60991, 97.11036)"><g><path d="M 33.414062 -16.742188 C 37.839844 -19.398438 40.863281 -23.824219 40.863281 -30.316406 C 40.863281 -39.683594 32.75 -47.207031 22.863281 -47.207031 L 9.882812 -47.207031 C 7.226562 -47.207031 5.089844 -45.066406 5.089844 -42.484375 L 5.089844 -4.71875 C 5.089844 -2.140625 7.226562 0 9.882812 0 C 12.539062 0 14.75 -2.140625 14.75 -4.71875 L 14.75 -13.792969 L 21.390625 -13.792969 C 22.273438 -13.792969 23.085938 -13.792969 23.898438 -13.867188 L 32.675781 -1.695312 C 34.519531 0.886719 37.765625 0.589844 39.828125 -0.957031 C 41.671875 -2.359375 41.96875 -5.015625 39.902344 -7.820312 Z M 14.75 -38.355469 L 23.011719 -38.355469 C 27.878906 -38.355469 31.199219 -34.8125 31.199219 -30.316406 C 31.199219 -25.890625 27.878906 -22.644531 22.9375 -22.644531 L 14.75 -22.644531 Z M 14.75 -38.355469 "/></g></g></g><g fill="#000000" fill-opacity="1"><g transform="translate(254.569321, 97.11036)"><g><path d="M 5.164062 -47.207031 C 2.507812 -47.207031 0.367188 -45.066406 0.367188 -42.484375 C 0.367188 -40.417969 2.507812 -38.28125 5.164062 -38.28125 L 14.824219 -38.28125 L 14.824219 -4.71875 C 14.824219 -2.066406 16.964844 0 19.621094 0 C 22.273438 0 24.488281 -2.066406 24.488281 -4.71875 L 24.488281 -38.28125 L 34.148438 -38.28125 C 36.804688 -38.28125 38.945312 -40.347656 38.945312 -42.484375 C 38.945312 -45.066406 36.804688 -47.207031 34.148438 -47.207031 Z M 5.164062 -47.207031 "/></g></g></g><g clip-path="url(#aff3aeb2b9)"><path fill="#ffffff" d="M 64.46875 100.226562 L 64.46875 21.25 L 299.851562 21.25 L 299.851562 100.226562 Z M 64.46875 100.226562 " fill-opacity="1" fill-rule="nonzero"/></g><path stroke-linecap="butt" transform="matrix(0.363253, 0, 0, 0.363253, 64.467068, 28.092254)" fill="none" stroke-linejoin="miter" d="M 57.471434 191.83614 C 85.075716 191.83614 104.61486 173.942285 104.61486 151.628733 C 104.61486 128.874288 86.118808 119.56174 61.331947 110.829883 C 52.008646 107.560813 43.040212 103.689547 43.040212 94.172683 C 43.040212 86.247339 49.589104 82.967516 56.277793 82.967516 C 65.396777 82.967516 72.934994 85.645142 78.580591 90.71005 C 84.882153 95.764203 92.216053 94.376999 95.635672 90.903613 C 98.711178 87.881874 100.937156 81.978192 98.065967 77.117602 C 90.387955 64.535985 73.924317 58.04086 57.85856 58.04086 C 34.964319 58.04086 17.05971 71.418237 17.05971 94.77488 C 17.05971 117.722889 34.114791 126.250429 56.277793 134.380089 C 70.450931 139.832123 78.193464 143.70339 78.193464 151.628733 C 78.193464 162.393006 70.698262 166.844962 60.138306 166.844962 C 48.341696 166.844962 40.416353 162.586569 35.953643 156.682887 C 32.286693 152.424494 28.221863 151.43517 24.995807 151.43517 C 15.231612 151.43517 9.134367 162.393006 15.231612 170.716229 C 21.726737 180.684741 35.953643 191.83614 57.471434 191.83614 Z M 224.774678 59.621627 C 217.483793 59.621627 211.386548 65.320992 211.386548 72.665645 L 211.386548 112.862298 L 154.52194 112.862298 L 154.52194 72.665645 C 154.52194 65.320992 148.424695 59.621627 141.144563 59.621627 C 133.810663 59.621627 127.960749 65.320992 127.960749 72.665645 L 127.960749 177.007038 C 127.960749 184.10436 133.810663 189.997288 141.144563 189.997288 C 148.424695 189.997288 154.52194 184.10436 154.52194 177.007038 L 154.52194 137.208265 L 211.386548 137.208265 L 211.386548 177.007038 C 211.386548 184.10436 217.085913 189.997288 224.376798 189.997288 C 231.710698 189.997288 237.560612 184.10436 237.560612 177.007038 L 237.560612 72.665645 C 237.560612 65.320992 232.108578 59.621627 224.774678 59.621627 Z M 327.546057 191.83614 C 363.882197 191.83614 395.357746 162.188689 395.357746 125.207338 C 395.357746 88.279754 363.882197 58.04086 327.546057 58.04086 C 290.75827 58.04086 260.325811 88.279754 260.325811 125.207338 C 260.325811 162.188689 290.75827 191.83614 327.546057 191.83614 Z M 327.546057 166.844962 C 304.189414 166.844962 286.747207 149.198438 286.747207 125.207338 C 286.747207 100.872125 304.189414 82.967516 327.546057 82.967516 C 351.08551 82.967516 368.742788 100.872125 368.742788 125.207338 C 368.742788 149.198438 351.08551 166.844962 327.546057 166.844962 Z M 495.634309 143.896953 C 507.828799 136.606068 516.152023 124.411577 516.152023 106.57149 C 516.152023 80.741538 493.849225 60.073275 466.632069 60.073275 L 430.887372 60.073275 C 423.553473 60.073275 417.703558 65.923189 417.703558 73.052772 L 417.703558 177.007038 C 417.703558 184.10436 423.553473 189.997288 430.887372 189.997288 C 438.178258 189.997288 444.275503 184.10436 444.275503 177.007038 L 444.275503 152.026614 L 462.567239 152.026614 C 464.997534 152.026614 467.223512 152.026614 469.460244 151.83305 L 493.644908 185.341015 C 498.709815 192.427583 507.624482 191.631823 513.334601 187.37343 C 518.388755 183.502163 519.227529 176.168263 513.528164 168.490251 Z M 444.275503 84.408488 L 467.029949 84.408488 C 480.41808 84.408488 489.580078 94.172683 489.580078 106.57149 C 489.580078 118.712212 480.41808 127.691401 466.825632 127.691401 L 444.275503 127.691401 Z M 538.917222 60.073275 C 531.583322 60.073275 525.67964 65.923189 525.67964 73.052772 C 525.67964 78.709123 531.583322 84.612804 538.917222 84.612804 L 565.489167 84.612804 L 565.489167 177.007038 C 565.489167 184.297923 571.392848 189.997288 578.726748 189.997288 C 586.017634 189.997288 592.114879 184.297923 592.114879 177.007038 L 592.114879 84.612804 L 618.67607 84.612804 C 626.020724 84.612804 631.913652 78.902686 631.913652 73.052772 C 631.913652 65.923189 626.020724 60.073275 618.67607 60.073275 Z M 538.917222 60.073275 " stroke="#000000" stroke-width="7.614562" stroke-opacity="1" stroke-miterlimit="4"/></svg>